<svg width="48" height="48" viewBox="0 0 48 48" fill="#ffffffff" xmlns="http://www.w3.org/2000/svg"><path d="M10.688 38.625q-3.459 0-5.584-.833T1.98 35.167q-1-1.834-1.041-4.709 0-2.916.833-7.041.708-3.834 1.708-6.5 1.042-2.709 2.625-4.375 1.584-1.667 3.917-2.417t5.75-.75q1.375 0 2.916.208a31 31 0 0 1 2.959.459q1.416.25 2.458.458l-.875 5.708A24 24 0 0 0 21.313 16a56 56 0 0 0-2.334-.208 32 32 0 0 0-2.208-.084q-1.833 0-3.084.459a4.66 4.66 0 0 0-2.124 1.458q-.834 1-1.459 2.708Q9.521 22 9.062 24.542q-.458 2.333-.583 3.833-.083 1.5.292 2.375.375.834 1.333 1.208.959.334 2.584.334 1.833 0 3.791-.167a332 332 0 0 0 3.334-.292l-.542 5.834a94 94 0 0 1-2.5.458q-1.458.209-3.042.333-1.583.167-3.041.167"/><path d="M32.79 38.625a34 34 0 0 1-4.041-.25 61 61 0 0 1-3.792-.5A197 197 0 0 1 22 37.292l1.042-5.667q1.29.166 3 .375 1.75.166 3.458.333 1.708.125 2.958.125 1.71 0 2.667-.375.958-.416 1.375-1.083.416-.708.542-1.5.124-.708-.125-1.083-.25-.375-1.042-.625-.75-.293-2.292-.584-2.707-.416-4.5-1.083-1.791-.709-2.791-1.75-.96-1.083-1.209-2.667-.209-1.584.209-3.791.666-3.459 2.208-5.292 1.584-1.833 3.958-2.542 2.376-.708 5.5-.708 1.625 0 3.5.167 1.875.166 3.667.416 1.791.21 3.042.459l-.959 5.75q-1.208-.126-2.875-.25a64 64 0 0 0-3.25-.25 38 38 0 0 0-2.833-.125q-1.709 0-2.667.416-.916.375-1.333.959-.375.541-.5 1.208-.125.708.125 1.125t1.042.708q.791.251 2.291.667 2.667.584 4.459 1.25 1.79.625 2.75 1.625 1 .958 1.208 2.5.25 1.5-.208 3.833-.626 3.334-2.167 5.25-1.541 1.917-3.917 2.75-2.375.792-5.541.792" fill="#3872fc"/></svg>
