<svg width="48" height="48" viewBox="0 0 48 48" fill="none" xmlns="http://www.w3.org/2000/svg">
  <path d="M10.68 38.62L8.38 38.62L6.52 38.34L5.1 37.79L3.68 37.23L2.64 36.36L1.97 35.16L1.31 33.94L0.96 32.37L0.93 30.45L0.93 28.51L1.21 26.16L1.77 23.41L2.24 20.86L2.81 18.69L3.47 16.91L4.17 15.11L5.04 13.65L6.1 12.54L7.15 11.43L8.46 10.62L10.02 10.12L11.57 9.62L13.49 9.37L15.77 9.37L16.68 9.37L17.65 9.44L18.68 9.58L19.71 9.69L20.7 9.84L21.64 10.04L22.59 10.2L23.4 10.36L24.1 10.5L23.22 16.2L22.7 16.12L22.06 16.05L21.31 16L20.56 15.91L19.78 15.84L18.97 15.79L18.17 15.73L17.43 15.7L16.77 15.7L15.54 15.7L14.52 15.86L13.68 16.16L12.85 16.44L12.14 16.93L11.56 17.62L11 18.29L10.52 19.19L10.1 20.33L9.71 21.44L9.36 22.84L9.06 24.54L8.75 26.09L8.56 27.37L8.47 28.37L8.42 29.37L8.52 30.16L8.77 30.75L9.02 31.3L9.46 31.7L10.1 31.95L10.74 32.18L11.6 32.29L12.68 32.29L13.9 32.29L15.17 32.23L16.47 32.12L17.81 32.01L18.92 31.91L19.81 31.83L19.27 37.66L18.57 37.8L17.74 37.95L16.77 38.12L15.79 38.26L14.78 38.37L13.72 38.45L12.67 38.56L11.65 38.62L10.68 38.62Z" fill="white"/>
  <path d="M32.79 38.62L31.48 38.62L30.13 38.54L28.74 38.37L27.38 38.23L26.12 38.06L24.95 37.87L23.79 37.65L22.8 37.45L21.99 37.29L23.04 31.62L23.9 31.73L24.9 31.86L26.04 32L27.2 32.11L28.36 32.22L29.49 32.33L30.63 32.41L31.62 32.45L32.45 32.45L33.59 32.45L34.48 32.33L35.12 32.08L35.76 31.8L36.22 31.44L36.49 31L36.77 30.52L36.95 30.02L37.04 29.5L37.12 29.02L37.08 28.66L36.91 28.41L36.74 28.16L36.4 27.95L35.87 27.79L35.37 27.59L34.61 27.4L33.58 27.2L31.77 26.93L30.27 26.56L29.08 26.12L27.88 25.65L26.95 25.06L26.29 24.37L25.65 23.65L25.24 22.76L25.08 21.7L24.94 20.65L25.01 19.38L25.29 17.91L25.73 15.61L26.47 13.84L27.49 12.62L28.55 11.4L29.87 10.55L31.45 10.08L33.04 9.61L34.87 9.37L36.95 9.37L38.04 9.37L39.2 9.43L40.45 9.54L41.7 9.65L42.92 9.79L44.12 9.95L45.31 10.09L46.33 10.25L47.16 10.41L46.2 16.16L45.4 16.08L44.44 16L43.33 15.91L42.24 15.8L41.16 15.72L40.08 15.66L38.99 15.58L38.05 15.54L37.24 15.54L36.11 15.54L35.22 15.68L34.58 15.95L33.97 16.2L33.52 16.52L33.24 16.91L32.99 17.27L32.83 17.68L32.74 18.12L32.66 18.59L32.7 18.97L32.87 19.25L33.04 19.52L33.38 19.76L33.91 19.95L34.44 20.12L35.2 20.34L36.2 20.62L37.98 21.01L39.47 21.43L40.66 21.87L41.86 22.29L42.77 22.83L43.41 23.5L44.08 24.13L44.48 24.97L44.62 26L44.79 27L44.72 28.27L44.41 29.83L43.99 32.05L43.27 33.8L42.24 35.08L41.22 36.36L39.91 37.27L38.33 37.83L36.74 38.36L34.9 38.62L32.79 38.62Z" fill="#3872FC"/>
</svg>
