<svg viewBox="0 0 12 12" height="32" width="32" xmlns="http://www.w3.org/2000/svg" version="1.1" xmlns:xlink="http://www.w3.org/1999/xlink"><path d="M10.126 2.206c0 -0.038 -0.04 -0.078 -0.04 -0.078 -0.038 0 -0.038 0 -0.078 0.04 -0.789 1.223 -1.617 2.446 -2.406 3.71H0.735c-0.078 0 -0.118 0.118 -0.038 0.158 2.84 1.063 6.983 2.68 9.272 3.587 0.078 0.04 0.158 -0.04 0.158 -0.078z" fill="#fd5a00"/><path d="M10.126 2.206c0 -0.038 -0.04 -0.078 -0.04 -0.078 -0.038 0 -0.038 0 -0.078 0.04 -0.789 1.223 -1.617 2.446 -2.406 3.71l2.524 0.026z" fill="#ff690a"/></svg>
