<svg height="32" viewBox="0.617 2.128 9.51 7.535" width="52.632" xmlns="http://www.w3.org/2000/svg"><path d="M10.126 2.206c0 -0.038 -0.04 -0.078 -0.04 -0.078 -0.038 0 -0.038 0 -0.078 0.04 -0.789 1.223 -1.617 2.446 -2.406 3.71H0.735c-0.078 0 -0.118 0.118 -0.038 0.158C3.537 7.099 7.68 8.716 9.969 9.623c0.078 0.04 0.158 -0.04 0.158 -0.078z" fill="#fd5a00"/><path d="M10.126 2.206c0 -0.038 -0.04 -0.078 -0.04 -0.078 -0.038 0 -0.038 0 -0.078 0.04 -0.789 1.223 -1.617 2.446 -2.406 3.71l2.524 0.026z" fill="#ff690a"/></svg>
